<svg width="18" height="18" viewBox="0 0 18 18" fill="none" xmlns="http://www.w3.org/2000/svg">
<path d="M17.2738 16.8692L15.843 14.4842C15.1821 13.3834 14.833 12.1225 14.833 10.8392V8.75C14.833 6.1125 13.073 3.88168 10.6663 3.1625V1.66668C10.6663 0.7475 9.91878 0 8.9996 0C8.08042 0 7.33292 0.7475 7.33292 1.66668V3.1625C4.92628 3.88168 3.16628 6.1125 3.16628 8.75V10.8392C3.16628 12.1225 2.8171 13.3825 2.1571 14.4834L0.726278 16.8684C0.648778 16.9975 0.647098 17.1575 0.721278 17.2884C0.795457 17.4192 0.932957 17.5 1.08296 17.5H16.9163C17.0663 17.5 17.2046 17.4192 17.2788 17.2892C17.353 17.1592 17.3505 16.9975 17.2738 16.8692Z" fill="#009EFD"/>
</svg>
