<svg width="18" height="25" viewBox="0 0 18 25" fill="none" xmlns="http://www.w3.org/2000/svg">
<path d="M9.07022 0.800049C4.23062 0.800049 0.293335 4.69921 0.293335 9.4919C0.293335 15.4398 8.14779 24.1716 8.4822 24.5404C8.7963 24.8869 9.34471 24.8863 9.65824 24.5404C9.99265 24.1716 17.8471 15.4398 17.8471 9.4919C17.847 4.69921 13.9098 0.800049 9.07022 0.800049ZM9.07022 13.865C6.6353 13.865 4.6544 11.9032 4.6544 9.4919C4.6544 7.08056 6.63534 5.11884 9.07022 5.11884C11.5051 5.11884 13.486 7.0806 13.486 9.49195C13.486 11.9033 11.5051 13.865 9.07022 13.865Z" fill="#45A1F4"/>
</svg>
