<svg width="20" height="20" viewBox="0 0 20 20" fill="none" xmlns="http://www.w3.org/2000/svg">
<path d="M9.99998 4.44448C11.2273 4.44448 12.2222 3.44955 12.2222 2.22224C12.2222 0.994931 11.2273 0 9.99998 0C8.77267 0 7.77774 0.994931 7.77774 2.22224C7.77774 3.44955 8.77267 4.44448 9.99998 4.44448Z" fill="#1AE4A6"/>
<path d="M9.99998 12.2223C11.2273 12.2223 12.2222 11.2273 12.2222 10C12.2222 8.7727 11.2273 7.77777 9.99998 7.77777C8.77267 7.77777 7.77774 8.7727 7.77774 10C7.77774 11.2273 8.77267 12.2223 9.99998 12.2223Z" fill="#1AE4A6"/>
<path d="M9.99998 19.9999C11.2273 19.9999 12.2222 19.005 12.2222 17.7777C12.2222 16.5504 11.2273 15.5555 9.99998 15.5555C8.77267 15.5555 7.77774 16.5504 7.77774 17.7777C7.77774 19.005 8.77267 19.9999 9.99998 19.9999Z" fill="#1AE4A6"/>
</svg>
