<svg width="20" height="16" viewBox="0 0 20 16" fill="none" xmlns="http://www.w3.org/2000/svg">
<path d="M18.2142 15.8572C18.6638 15.8572 19.0533 15.7087 19.3845 15.4156L13.7182 9.74908C13.5822 9.84643 13.4505 9.9411 13.326 10.0311C12.9019 10.3435 12.5578 10.5873 12.2935 10.762C12.0293 10.9371 11.6777 11.1156 11.2388 11.2978C10.7997 11.4802 10.3906 11.5711 10.0111 11.5711H9.99995H9.98884C9.60928 11.5711 9.20016 11.4803 8.76105 11.2978C8.32194 11.1156 7.97037 10.9371 7.70639 10.762C7.44215 10.5873 7.09818 10.3436 6.67392 10.0311C6.55569 9.94444 6.42457 9.84934 6.28281 9.74756L0.615402 15.4156C0.946524 15.7087 1.33632 15.8572 1.78586 15.8572H18.2142Z" fill="#009EFD"/>
<path d="M1.12735 6.18085C0.703347 5.89817 0.327345 5.57442 0 5.20975V13.8309L4.99427 8.83665C3.99513 8.13911 2.7078 7.25486 1.12735 6.18085Z" fill="#009EFD"/>
<path d="M18.8838 6.18085C17.3637 7.20977 16.0716 8.09554 15.0076 8.83865L19.9999 13.8311V5.20975C19.6798 5.56709 19.3078 5.89062 18.8838 6.18085Z" fill="#009EFD"/>
<path d="M18.2144 0.142822H1.78606C1.21292 0.142822 0.772288 0.336361 0.463606 0.723038C0.154671 1.1099 0.000457764 1.59371 0.000457764 2.17392C0.000457764 2.64259 0.205107 3.1504 0.614225 3.6975C1.02334 4.24438 1.45868 4.67394 1.92001 4.9864C2.17292 5.16509 2.9356 5.6953 4.20805 6.57687C4.89495 7.05287 5.4923 7.46776 6.00563 7.82579C6.44318 8.13066 6.82053 8.39468 7.13208 8.61378C7.16784 8.63887 7.22409 8.6791 7.29874 8.73248C7.37917 8.79025 7.48095 8.86356 7.60652 8.95423C7.84831 9.1291 8.04919 9.27046 8.20917 9.37845C8.36894 9.48648 8.56252 9.60714 8.78961 9.74113C9.01652 9.87494 9.23053 9.97555 9.43141 10.0425C9.63232 10.1094 9.8183 10.1429 9.9894 10.1429H10.0005H10.0116C10.1827 10.1429 10.3687 10.1094 10.5697 10.0425C10.7705 9.97555 10.9843 9.87515 11.2114 9.74113C11.4383 9.60714 11.6316 9.48622 11.7919 9.37845C11.9519 9.27046 12.1527 9.12914 12.3946 8.95423C12.5199 8.86356 12.6217 8.79021 12.7021 8.73266C12.7768 8.67906 12.833 8.63909 12.869 8.61378C13.1117 8.44489 13.4899 8.18196 13.9984 7.82888C14.9237 7.18599 16.2864 6.23975 18.0922 4.9864C18.6353 4.60706 19.089 4.14928 19.4537 3.61373C19.8177 3.07818 20.0002 2.51641 20.0002 1.9286C20.0002 1.4375 19.8233 1.01727 19.4702 0.667264C19.1166 0.317697 18.698 0.142822 18.2144 0.142822Z" fill="#009EFD"/>
</svg>
