<svg width="20" height="20" viewBox="0 0 20 20" fill="none" xmlns="http://www.w3.org/2000/svg">
<path d="M7.0651 11.0339C7.0651 10.7834 6.86189 10.5804 6.61114 10.5804H5.02701C4.77656 10.5804 4.5733 10.7834 4.5733 11.0339V12.6179C4.5733 12.8687 4.77656 13.0718 5.02701 13.0718H6.61114C6.86189 13.0718 7.0651 12.8687 7.0651 12.6179V11.0339Z" fill="#009EFD"/>
<path d="M11.0239 11.0339C11.0239 10.7834 10.8207 10.5804 10.5704 10.5804H8.98612C8.73566 10.5804 8.53241 10.7834 8.53241 11.0339V12.6179C8.53241 12.8687 8.73566 13.0718 8.98612 13.0718H10.5704C10.8207 13.0718 11.0239 12.8687 11.0239 12.6179V11.0339Z" fill="#009EFD"/>
<path d="M14.9833 11.0339C14.9833 10.7834 14.7801 10.5804 14.5296 10.5804H12.9455C12.6947 10.5804 12.4915 10.7834 12.4915 11.0339V12.6179C12.4915 12.8687 12.6947 13.0718 12.9455 13.0718H14.5296C14.7801 13.0718 14.9833 12.8687 14.9833 12.6179V11.0339Z" fill="#009EFD"/>
<path d="M7.0651 14.9933C7.0651 14.7424 6.86189 14.5396 6.61114 14.5396H5.02701C4.77656 14.5396 4.5733 14.7424 4.5733 14.9933V16.5769C4.5733 16.8276 4.77656 17.0307 5.02701 17.0307H6.61114C6.86189 17.0307 7.0651 16.8276 7.0651 16.5769V14.9933Z" fill="#009EFD"/>
<path d="M11.0239 14.9933C11.0239 14.7424 10.8207 14.5396 10.5704 14.5396H8.98612C8.73566 14.5396 8.53241 14.7424 8.53241 14.9933V16.5769C8.53241 16.8276 8.73566 17.0307 8.98612 17.0307H10.5704C10.8207 17.0307 11.0239 16.8276 11.0239 16.5769V14.9933Z" fill="#009EFD"/>
<path d="M14.9833 14.9933C14.9833 14.7424 14.7801 14.5396 14.5298 14.5396H12.9455C12.6947 14.5396 12.4915 14.7424 12.4915 14.9933V16.5769C12.4915 16.8276 12.6947 17.0307 12.9455 17.0307H14.5298C14.7801 17.0307 14.9833 16.8276 14.9833 16.5769V14.9933Z" fill="#009EFD"/>
<path d="M17.8158 2.22695V4.64627C17.8158 5.73977 16.9287 6.62097 15.8354 6.62097H14.5861C13.4926 6.62097 12.5938 5.73977 12.5938 4.64627V2.21826H6.96276V4.64627C6.96276 5.73977 6.06395 6.62097 4.97069 6.62097H3.72112C2.62782 6.62097 1.74076 5.73977 1.74076 4.64627V2.22695C0.785203 2.25575 0 3.04644 0 4.01831V18.1967C0 19.1868 0.802534 20 1.79267 20H17.7639C18.7525 20 19.5565 19.1851 19.5565 18.1967V4.01831C19.5565 3.04644 18.7714 2.25575 17.8158 2.22695ZM17.2356 17.3138C17.2356 17.7416 16.8886 18.0888 16.4605 18.0888H3.06186C2.6338 18.0888 2.28686 17.7416 2.28686 17.3138V9.99012C2.28686 9.56205 2.63376 9.21491 3.06186 9.21491H16.4605C16.8886 9.21491 17.2355 9.56205 17.2355 9.99012L17.2356 17.3138Z" fill="#009EFD"/>
<path d="M3.71687 5.32394H4.95263C5.32772 5.32394 5.63184 5.02026 5.63184 4.64518V0.679007C5.63184 0.30388 5.32772 0 4.95263 0H3.71687C3.34174 0 3.03766 0.30388 3.03766 0.679007V4.64518C3.03766 5.02026 3.34174 5.32394 3.71687 5.32394Z" fill="#009EFD"/>
<path d="M14.5702 5.32394H15.8059C16.1808 5.32394 16.4849 5.02026 16.4849 4.64518V0.679007C16.4849 0.30388 16.1808 0 15.8059 0H14.5702C14.1951 0 13.891 0.30388 13.891 0.679007V4.64518C13.891 5.02026 14.1951 5.32394 14.5702 5.32394Z" fill="#009EFD"/>
</svg>
