<svg width="13" height="16" viewBox="0 0 13 16" fill="none" xmlns="http://www.w3.org/2000/svg">
<path d="M6.4806 0.65625C3.41658 0.65625 0.923828 3.149 0.923828 6.213C0.923828 10.0155 5.8966 15.5978 6.10832 15.8336C6.30718 16.0551 6.65439 16.0547 6.85289 15.8336C7.06461 15.5978 12.0374 10.0155 12.0374 6.213C12.0373 3.149 9.5446 0.65625 6.4806 0.65625ZM6.4806 9.00875C4.93902 9.00875 3.68488 7.75458 3.68488 6.213C3.68488 4.67141 4.93905 3.41727 6.4806 3.41727C8.02216 3.41727 9.2763 4.67144 9.2763 6.21303C9.2763 7.75461 8.02216 9.00875 6.4806 9.00875Z" fill="white"/>
</svg>
