<svg width="24" height="20" viewBox="0 0 24 20" fill="none" xmlns="http://www.w3.org/2000/svg">
<path d="M14.3416 3.43274C15.4405 4.12172 16.2111 5.28762 16.3513 6.64096C16.7995 6.85036 17.2969 6.97077 17.8242 6.97077C19.7494 6.97077 21.3097 5.41041 21.3097 3.48553C21.3097 1.56036 19.7494 0 17.8242 0C15.9174 0.000593181 14.3707 1.53308 14.3416 3.43274ZM12.0582 10.5693C13.9834 10.5693 15.5437 9.00865 15.5437 7.08377C15.5437 5.1589 13.9831 3.59854 12.0582 3.59854C10.1333 3.59854 8.57206 5.1592 8.57206 7.08407C8.57206 9.00894 10.1333 10.5693 12.0582 10.5693ZM13.5367 10.8069H10.5791C8.11828 10.8069 6.11629 12.8092 6.11629 15.27V18.8869L6.12549 18.9435L6.37462 19.0215C8.72303 19.7553 10.7633 20 12.4426 20C15.7226 20 17.6237 19.0648 17.7409 19.0052L17.9737 18.8875H17.9986V15.27C17.9995 12.8092 15.9975 10.8069 13.5367 10.8069ZM19.3033 7.20864H16.3685C16.3368 8.38284 15.8356 9.44019 15.0428 10.2006C17.2301 10.8511 18.8305 12.8795 18.8305 15.2753V16.3899C21.7282 16.2837 23.398 15.4625 23.5081 15.4073L23.7409 15.2892H23.7658V11.6711C23.7658 9.21062 21.7638 7.20864 19.3033 7.20864ZM5.94219 6.97136C6.62406 6.97136 7.25846 6.77235 7.79589 6.43335C7.96672 5.31906 8.56406 4.34535 9.41735 3.68217C9.42091 3.61692 9.42713 3.55227 9.42713 3.48642C9.42713 1.56125 7.86647 0.000889708 5.94219 0.000889708C4.01673 0.000889708 2.45666 1.56125 2.45666 3.48642C2.45666 5.4107 4.01673 6.97136 5.94219 6.97136ZM9.07241 10.2006C8.28348 9.44404 7.78402 8.39233 7.74754 7.22525C7.63869 7.21724 7.53103 7.20864 7.42011 7.20864H4.4628C2.00199 7.20864 0 9.21062 0 11.6711V15.2887L0.00919431 15.3444L0.25833 15.423C2.14227 16.0112 3.82365 16.2822 5.28406 16.3677V15.2753C5.28465 12.8795 6.88446 10.8517 9.07241 10.2006Z" fill="#45A1F4"/>
</svg>
